<?xml version="1.0" encoding="UTF-8"?>
<svg xmlns="http://www.w3.org/2000/svg" xmlns:xlink="http://www.w3.org/1999/xlink" width="512" height="512" viewBox="0 0 60 60" version="1.1"><!-- Generator: Sketch 51.3 (57544) - http://www.bohemiancoding.com/sketch --><title>012 - Battery</title><desc>Created with Sketch.</desc><defs/><g id="Page-1" stroke="none" stroke-width="1" fill="none" fill-rule="evenodd"><g id="012---Battery" fill-rule="nonzero"><polygon id="Shape" fill="#CAD9FC" points="3 20 3 54 57 54 57 20"/><polygon id="Shape" fill="#E8EDFC" points="3 20 3 54 54 54 54 20"/><path d="M11,4 C12.1045695,4 13,4.8954305 13,6 L13,9 L9,9 L9,6 C9,4.8954305 9.8954305,4 11,4 Z" id="Shape" fill="#E8EDFC"/><path d="M49,4 C50.1045695,4 51,4.8954305 51,6 L51,9 L47,9 L47,6 C47,4.8954305 47.8954305,4 49,4 Z" id="Shape" fill="#E8EDFC"/><path d="M41,6 L41,13 L38,13 L38,6 C38,4.67391755 37.4732158,3.40214799 36.5355339,2.46446609 C35.597852,1.5267842 34.3260824,1 33,1 L36,1 C37.3260824,1 38.597852,1.5267842 39.5355339,2.46446609 C40.4732158,3.40214799 41,4.67391755 41,6 Z" id="Shape" fill="#CAD9FC"/><path d="M38,6 L38,13 L37,13 L37,7 C36.9967052,5.89679813 36.1032019,5.0032948 35,5 L25,5 C23.8967981,5.0032948 23.0032948,5.89679813 23,7 L23,13 L19,13 L19,6 C19,3.23857625 21.2385763,1 24,1 L33,1 C34.3260824,1 35.597852,1.5267842 36.5355339,2.46446609 C37.4732158,3.40214799 38,4.67391755 38,6 Z" id="Shape" fill="#E8EDFC"/><path d="M57,12 L57,17 L3,17 L3,12 C3,11.4477153 3.44771525,11 4,11 L56,11 C56.5522847,11 57,11.4477153 57,12 Z" id="Shape" fill="#7FACFA"/><path d="M54,12 L54,17 L3,17 L3,12 C3,11.4477153 3.44771525,11 4,11 L53,11 C53.5522847,11 54,11.4477153 54,12 Z" id="Shape" fill="#A4C2F7"/><path d="M14,9 L14,17 L8,17 L8,9 C8,8.44771525 8.44771525,8 9,8 L13,8 C13.5522847,8 14,8.44771525 14,9 Z" id="Shape" fill="#7FACFA"/><path d="M11,9 L11,17 L8,17 L8,9 C8,8.44771525 8.44771525,8 9,8 L10,8 C10.5522847,8 11,8.44771525 11,9 Z" id="Shape" fill="#A4C2F7"/><path d="M52,9 L52,17 L46,17 L46,9 C46,8.44771525 46.4477153,8 47,8 L51,8 C51.5522847,8 52,8.44771525 52,9 Z" id="Shape" fill="#7FACFA"/><path d="M49,9 L49,17 L46,17 L46,9 C46,8.44771525 46.4477153,8 47,8 L48,8 C48.5522847,8 49,8.44771525 49,9 Z" id="Shape" fill="#A4C2F7"/><rect id="Rectangle-path" fill="#CAD9FC" x="1" y="15" width="58" height="7" rx="2"/><rect id="Rectangle-path" fill="#CAD9FC" x="1" y="52" width="58" height="7" rx="2"/><rect id="Rectangle-path" fill="#E8EDFC" x="1" y="15" width="55" height="7" rx="2"/><rect id="Rectangle-path" fill="#E8EDFC" x="1" y="52" width="55" height="7" rx="2"/><path d="M18,31 L18,33 C18,33.5522847 17.5522847,34 17,34 L15,34 L15,36 C15,36.5522847 14.5522847,37 14,37 L12,37 C11.8236799,36.9998394 11.6507665,36.9514237 11.5,36.86 C11.1900312,36.6848908 10.9988209,36.3560092 11,36 L11,34 L9,34 C8.44771525,34 8,33.5522847 8,33 L8,31 C8,30.4477153 8.44771525,30 9,30 L11,30 L11,28 C10.9988209,27.6439908 11.1900312,27.3151092 11.5,27.14 C11.6507665,27.0485763 11.8236799,27.0001606 12,27 L14,27 C14.5522847,27 15,27.4477153 15,28 L15,30 L17,30 C17.5522847,30 18,30.4477153 18,31 Z" id="Shape" fill="#E8EDFC"/><rect id="Rectangle-path" fill="#E8EDFC" x="42" y="30" width="10" height="4" rx="1"/><path d="M35.63,36.64 L27,47 L30,38 L25.34,38 C25.0246453,37.9977864 24.7288121,37.8469446 24.5418065,37.5930107 C24.3548009,37.3390768 24.2985371,37.011808 24.39,36.71 L26.79,28.71 C26.9133177,28.2882505 27.300593,27.9988132 27.74,28 L31.66,28 C31.9753547,28.0022136 32.2711879,28.1530554 32.4581935,28.4069893 C32.6451991,28.6609232 32.7014629,28.988192 32.61,29.29 L31.29,33.71 C31.1985371,34.011808 31.2548009,34.3390768 31.4418065,34.5930107 C31.6288121,34.8469446 31.9246453,34.9977864 32.24,35 L34.86,35 C35.2482681,34.9993686 35.6018059,35.223541 35.7668198,35.5749992 C35.9318337,35.9264575 35.8784924,36.3416646 35.63,36.64 Z" id="Shape" fill="#CAD9FC"/><path d="M15,31 L15,33 C15,33.5522847 14.5522847,34 14,34 L14,36 L12,36 C12.0011791,36.3560092 11.8099688,36.6848908 11.5,36.86 C11.1900312,36.6848908 10.9988209,36.3560092 11,36 L11,34 L9,34 C8.44771525,34 8,33.5522847 8,33 L8,31 C8,30.4477153 8.44771525,30 9,30 L11,30 L11,28 C10.9988209,27.6439908 11.1900312,27.3151092 11.5,27.14 C11.8099688,27.3151092 12.0011791,27.6439908 12,28 L14,28 L14,30 C14.2652165,30 14.5195704,30.1053568 14.7071068,30.2928932 C14.8946432,30.4804296 15,30.7347835 15,31 Z" id="Shape" fill="#F5F5F5"/><rect id="Rectangle-path" fill="#F5F5F5" x="42" y="30" width="7" height="4" rx="1"/><path d="M32.63,36.64 L29,41 L30,38 L25.34,38 C25.0246453,37.9977864 24.7288121,37.8469446 24.5418065,37.5930107 C24.3548009,37.3390768 24.2985371,37.011808 24.39,36.71 L26.79,28.71 C26.9133177,28.2882505 27.300593,27.9988132 27.74,28 L28.66,28 C28.9753547,28.0022136 29.2711879,28.1530554 29.4581935,28.4069893 C29.6451991,28.6609232 29.7014629,28.988192 29.61,29.29 L28.29,33.71 C28.1985371,34.011808 28.2548009,34.3390768 28.4418065,34.5930107 C28.6288121,34.8469446 28.9246453,34.9977864 29.24,35 L31.86,35 C32.2482681,34.9993686 32.6018059,35.223541 32.7668198,35.5749992 C32.9318337,35.9264575 32.8784924,36.3416646 32.63,36.64 Z" id="Shape" fill="#E8EDFC"/><path d="M9,49 L7,49 C6.44771525,49 6,48.5522847 6,48 C6,47.4477153 6.44771525,47 7,47 L9,47 C9.55228475,47 10,47.4477153 10,48 C10,48.5522847 9.55228475,49 9,49 Z" id="Shape" fill="#2C2F38"/><path d="M20,49 L13,49 C12.4477153,49 12,48.5522847 12,48 C12,47.4477153 12.4477153,47 13,47 L20,47 C20.5522847,47 21,47.4477153 21,48 C21,48.5522847 20.5522847,49 20,49 Z" id="Shape" fill="#2C2F38"/><path d="M19,6 L19,11 L22,11 L22,6 C22,3.23857625 24.2385763,1 27,1 L24,1 C21.2385763,1 19,3.23857625 19,6 Z" id="Shape" fill="#FFFFFF"/><path d="M8,9 L8,11 L11,11 L11,9 C11,8.44771525 11.4477153,8 12,8 L12,6 C12.0015701,5.51701354 12.17936,5.05120405 12.5,4.69 C11.9551425,4.05869422 11.074716,3.83359268 10.2937125,4.12591116 C9.51270888,4.41822964 8.99644858,5.16609109 9,6 L9,8 C8.44771525,8 8,8.44771525 8,9 Z" id="Shape" fill="#FFFFFF"/><path d="M3,59 L6,59 C4.89679813,58.9967052 4.0032948,58.1032019 4,57 L4,52 L3,52 C1.89679813,52.0032948 1.0032948,52.8967981 1,54 L1,57 C1.0032948,58.1032019 1.89679813,58.9967052 3,59 Z" id="Shape" fill="#FFFFFF"/><rect id="Rectangle-path" fill="#FFFFFF" x="3" y="22" width="3" height="30"/><path d="M4,20 L4,17 C4.0032948,15.8967981 4.89679813,15.0032948 6,15 L6,12 C6,11.4477153 6.44771525,11 7,11 L4,11 C3.44771525,11 3,11.4477153 3,12 L3,15 C1.89679813,15.0032948 1.0032948,15.8967981 1,17 L1,20 C1.0032948,21.1032019 1.89679813,21.9967052 3,22 L4,22 L4,20 Z" id="Shape" fill="#FFFFFF"/><path d="M26.232,46.36 L34.554,36.373 L34.771,36.113 L34.864,36 C34.864,36 34.864,36 34.864,36 L32.174,36 C31.2362641,35.9690113 30.4461257,35.2903241 30.274,34.368 C30.2345191,34.1456395 30.2314794,33.9183367 30.265,33.695 C30.2824763,33.5937232 30.3058493,33.4935528 30.335,33.395 L30.383,33.233 L30.583,32.586 L31.357,30 L31.557,29.352 L31.657,29.029 C31.657,28.977 31.668,29.013 31.676,29.003 C31.651,29.012 31.668,29.003 31.664,29.003 L29.157,29.003 L27.8,29.003 C27.691,29.003 27.778,28.987 27.741,29.023 L26.964,31.613 L25.41,36.793 C25.326,37.106 25.343,36.978 25.335,37.004 C25.355,36.997 25.348,37.004 25.348,37.004 L25.971,37.004 L31.271,37.004 C31.306,37.019 31.434,36.968 31.38,37.047 L30.525,39.612 L29.666,42.19 L27.956,47.32 L26.056,46.688 L28.613,39 L25.349,39 L25.096,38.985 C24.9245748,38.9620891 24.7566364,38.9180893 24.596,38.854 C23.9415119,38.5882327 23.4748097,37.9981146 23.367,37.3 C23.3400264,37.1279118 23.3369977,36.9529186 23.358,36.78 C23.3753771,36.6350375 23.4065176,36.492059 23.451,36.353 L23.6,35.853 L24.793,31.878 L25.393,29.89 L25.693,28.896 L25.851,28.374 C26.0726673,27.7016548 26.633258,27.1965906 27.325,27.046 C27.479423,27.0129422 27.6370979,26.9975102 27.795,27 L31.167,27 L31.71,27 C32.8032067,27.0267336 33.6722622,27.9265245 33.661,29.02 C33.6588689,29.1927052 33.6346728,29.3644298 33.589,29.531 L33.509,29.8 L33.36,30.3 L33.06,31.294 L32.46,33.282 L32.311,33.782 L32.245,34 L32.245,34.007 C32.238,34.028 32.245,33.992 32.245,33.999 L34.82,33.999 C35.5100121,33.9870552 36.1583265,34.3283725 36.539,34.904 C36.9257865,35.4957824 36.9714094,36.2477993 36.659,36.882 C36.5844117,37.0299986 36.493514,37.1691962 36.388,37.297 L36.222,37.497 L36.087,37.659 L36.056,37.696 L35.995,37.769 L35.749,38.069 L34.767,39.248 L27.767,47.648 L26.232,46.36 Z" id="Shape" fill="#FFFFFF"/><path d="M3,21 L56.078,21 C56.715,21.014 57.411,20.969 58,21.031 L58,52.846 C58,52.926 58.026,53.034 57.91,53 L3,53 L3,51 L56,51 L56,23 L3,23 L3,21 Z" id="Shape" fill="#FFFFFF"/><polygon id="Shape" fill="#FFFFFF" points="4 22 4 35 4 52 2 52 2 35 2 22"/><path d="M23.371,37.319 C23.377,37.359 23.39,37.397 23.399,37.437 C23.420519,37.5336855 23.4492665,37.6286189 23.485,37.721 C23.503,37.769 23.525,37.815 23.547,37.861 C23.5907007,37.9511514 23.6408301,38.0380423 23.697,38.121 C23.714,38.144 23.723,38.171 23.74,38.194 C23.7468141,38.202147 23.7541638,38.2098307 23.762,38.217 C23.8365157,38.3156986 23.9202238,38.4071078 24.012,38.49 C24.019,38.497 24.028,38.501 24.035,38.508 C24.071,38.539 24.11,38.565 24.148,38.593 C24.2180461,38.6461452 24.2915408,38.6945849 24.368,38.738 C24.4166381,38.7662372 24.4667051,38.7919383 24.518,38.815 C24.6066509,38.8552686 24.6982513,38.8886994 24.792,38.915 C24.828,38.925 24.861,38.94 24.892,38.948 C25.0036373,38.9741406 25.1174577,38.9898746 25.232,38.995 L25.302,38.995 C25.315,38.995 25.327,38.995 25.339,38.995 L28.608,38.995 L27.071,43.605 L26.046,46.679 C25.8942389,47.1350777 26.0884279,47.634607 26.5083848,47.8684328 C26.9283418,48.1022586 27.4552459,48.0042232 27.763,47.635 L30.324,44.562 L36.4,37.28 L36.407,37.269 L36.426,37.246 C36.4953992,37.1572328 36.5579145,37.0632927 36.613,36.965 C36.632,36.931 36.645,36.893 36.662,36.857 C36.679,36.821 36.701,36.774 36.719,36.73 C36.77458,36.5915536 36.814495,36.447323 36.838,36.3 C36.844,36.256 36.845,36.213 36.849,36.169 C36.8609995,36.0331542 36.8589889,35.8964342 36.843,35.761 C36.843,35.733 36.843,35.706 36.836,35.678 L36.836,35.659 C36.8074038,35.4979521 36.7579896,35.3413058 36.689,35.193 C36.683,35.179 36.682,35.165 36.676,35.151 C36.67,35.137 36.66,35.131 36.655,35.119 C36.5832258,34.9738625 36.4942534,34.8378857 36.39,34.714 C36.359,34.677 36.325,34.645 36.29,34.614 C36.202513,34.5232963 36.106766,34.4409404 36.004,34.368 C35.972,34.346 35.944,34.32 35.911,34.3 C35.7759473,34.216154 35.631224,34.148997 35.48,34.1 C35.45,34.091 35.422,34.081 35.392,34.073 C35.251501,34.0316615 35.1063638,34.0081439 34.96,34.003 L34.9,34.003 C34.889,34.003 34.879,33.998 34.868,33.998 L32.909,33.998 L32.246,33.998 L32.253,33.971 L33.572,29.571 C33.572,29.559 33.572,29.546 33.578,29.533 C33.6067941,29.4213487 33.6271845,29.3076974 33.639,29.193 C33.645,29.139 33.648,29.086 33.65,29.031 C33.65,29.006 33.656,28.979 33.655,28.955 C33.6518947,28.8805982 33.6442136,28.8064581 33.632,28.733 C33.632,28.699 33.632,28.666 33.622,28.633 C33.5972737,28.5020764 33.5590704,28.3740617 33.508,28.251 C33.491,28.209 33.468,28.169 33.448,28.128 C33.4073661,28.0445115 33.3609185,27.96398 33.309,27.887 C33.291,27.86 33.28,27.83 33.26,27.803 C33.24,27.776 33.229,27.773 33.215,27.755 C33.1465767,27.6690789 33.0713326,27.5888185 32.99,27.515 C32.945,27.475 32.899,27.44 32.852,27.404 C32.7754224,27.3447257 32.6945314,27.2912441 32.61,27.244 C32.567,27.221 32.524,27.201 32.48,27.181 C32.393072,27.1407179 32.3031321,27.107283 32.211,27.081 C32.167,27.068 32.124,27.054 32.078,27.044 C32.068,27.044 32.058,27.037 32.047,27.035 C31.9362614,27.01338 31.8238171,27.001667 31.711,27 L31.669,27 L31.656,27 L27.744,27 C27.736,27 27.729,27 27.722,27 C27.5275118,27.0022843 27.3344278,27.0332856 27.149,27.092 C27.111,27.103 27.077,27.119 27.04,27.133 C26.8739728,27.1888073 26.717487,27.2697483 26.576,27.373 C26.552,27.39 26.532,27.411 26.509,27.43 C26.3725216,27.536478 26.2510856,27.6609415 26.148,27.8 C26.135,27.819 26.119,27.834 26.106,27.853 C25.988878,28.0212968 25.89879,28.2068712 25.839,28.403 L25.832,28.418 L23.495,36.21 C23.482,36.243 23.46,36.31 23.436,36.405 L23.436,36.418 L23.436,36.438 C23.4086245,36.5509684 23.3882524,36.6655199 23.375,36.781 C23.367531,36.8283753 23.3625243,36.8761061 23.36,36.924 C23.3452262,37.0555353 23.3489288,37.1884908 23.371,37.319 Z M29.145,29 L31.645,29 L30.318,33.424 L30.318,33.438 C30.3,33.503 30.273,33.61 30.26,33.69 C30.26,33.727 30.26,33.765 30.253,33.803 C30.246,33.841 30.243,33.903 30.242,33.957 C30.2408229,34.0572706 30.2465029,34.1575043 30.259,34.257 C30.259,34.29 30.259,34.323 30.269,34.357 C30.2935485,34.4924328 30.3334736,34.6246215 30.388,34.751 C30.398,34.777 30.412,34.801 30.424,34.826 C30.4724584,34.9310349 30.5303633,35.0314479 30.597,35.126 C30.61,35.145 30.618,35.166 30.632,35.185 C30.646,35.204 30.652,35.205 30.661,35.216 C30.7421053,35.320589 30.8328354,35.4173455 30.932,35.505 C30.97,35.537 31.012,35.562 31.052,35.592 C31.1220461,35.6451452 31.1955408,35.6935849 31.272,35.737 C31.318,35.762 31.364,35.785 31.411,35.807 C31.5077339,35.8520252 31.6080887,35.888822 31.711,35.917 C31.736,35.924 31.759,35.934 31.784,35.939 C31.9077925,35.9693035 32.0345725,35.9857379 32.162,35.988 L32.209,35.988 C32.217,35.988 32.224,35.988 32.232,35.988 L33.554,35.988 L34.849,35.988 L34.759,36.098 L34.542,36.358 L33.902,37.126 L31.342,40.198 L29.614,42.273 L29.648,42.173 L29.948,41.283 L30.941,38.303 L31.365,37.03 C31.419,36.951 31.291,37.002 31.256,36.987 L25.956,36.987 L25.334,36.987 L25.341,36.963 C25.351,36.938 25.365,36.891 25.392,36.792 L27.727,29.008 C27.74,28.996 27.737,28.991 27.733,28.989 L29.138,28.989 L29.145,29 Z" id="Shape" fill="#428DFF"/><path d="M3,31 C3.26472686,30.9961196 3.51825702,30.892565 3.71,30.71 C4.09674033,30.3156639 4.09674033,29.6843361 3.71,29.29 L3.56,29.17 C3.50427287,29.1321227 3.44373808,29.1018554 3.38,29.08 C3.32333758,29.0511123 3.26266255,29.0308873 3.2,29.02 C3.13385548,29.0088692 3.06703885,29.0021875 3,29 C2.73527314,29.0038804 2.48174298,29.107435 2.29,29.29 C2.19960316,29.3856071 2.12832305,29.4976187 2.08,29.62 C1.92912342,29.9929737 2.01135194,30.4197788 2.29,30.71 C2.38560709,30.8003968 2.49761868,30.871677 2.62,30.92 C2.74022231,30.971241 2.86932274,30.99842 3,31 Z" id="Shape" fill="#428DFF"/><path d="M58,14.184 L58,12 C58,10.8954305 57.1045695,10 56,10 L53,10 L53,9 C52.997855,8.28867322 52.6167513,7.63241258 52,7.278 L52,6 C52,4.34314575 50.6568542,3 49,3 C47.3431458,3 46,4.34314575 46,6 L46,7.278 C45.3832487,7.63241258 45.002145,8.28867322 45,9 L45,10 L42,10 L42,6 C41.9966926,2.68766243 39.3123376,0.00330737898 36,0 L24,0 C20.6876624,0.00330737898 18.0033074,2.68766243 18,6 L18,10 L15,10 L15,9 C14.997855,8.28867322 14.6167513,7.63241258 14,7.278 L14,6 C14,4.34314578 12.6568542,3.00000006 11,3.00000006 C9.34314578,3.00000006 8.00000003,4.34314578 8,6 L8,7.278 C7.38324874,7.63241258 7.002145,8.28867322 7,9 L7,10 L4,10 C2.8954305,10 2,10.8954305 2,12 L2,14.184 C0.805649135,14.6062546 0.00525139351,15.7332146 0,17 L0,20 C0.00525139351,21.2667854 0.805649135,22.3937454 2,22.816 L2,26 C2,26.5522847 2.44771525,27 3,27 C3.55228475,27 4,26.5522847 4,26 L4,23 L56,23 L56,51 L4,51 L4,34 C4,33.4477153 3.55228475,33 3,33 C2.44771525,33 2,33.4477153 2,34 L2,51.184 C0.805649135,51.6062546 0.00525139351,52.7332146 0,54 L0,57 C2.02906125e-16,58.6568542 1.34314575,60 3,60 L57,60 C58.6568542,60 60,58.6568542 60,57 L60,54 C59.9947486,52.7332146 59.1943509,51.6062546 58,51.184 L58,22.816 C59.1943509,22.3937454 59.9947486,21.2667854 60,20 L60,17 C59.9947486,15.7332146 59.1943509,14.6062546 58,14.184 Z M56,12 L56,14 L53,14 L53,12 L56,12 Z M47,9 L51,9 L51,14 L47,14 L47,9 Z M48,6 C48,5.44771525 48.4477153,5 49,5 C49.5522847,5 50,5.44771525 50,6 L50,7 L48,7 L48,6 Z M20,6 C20,3.790861 21.790861,2 24,2 L36,2 C38.209139,2 40,3.790861 40,6 L40,10 L38,10 L38,7 C38,5.34314575 36.6568542,4 35,4 L25,4 C23.3431458,4 22,5.34314575 22,7 L22,10 L20,10 L20,6 Z M36,10 L24,10 L24,7 C24,6.44771525 24.4477153,6 25,6 L35,6 C35.5522847,6 36,6.44771525 36,7 L36,10 Z M19,12 L45,12 L45,14 L15,14 L15,12 L19,12 Z M9,9 L13,9 L13,14 L9,14 L9,9 Z M10,6 C10,5.44771525 10.4477153,5 11,5 C11.5522847,5 12,5.44771525 12,6 L12,7 L10,7 L10,6 Z M4,12 L7,12 L7,14 L4,14 L4,12 Z M58,57 C58,57.5522847 57.5522847,58 57,58 L3,58 C2.44771525,58 2,57.5522847 2,57 L2,54 C2,53.4477153 2.44771525,53 3,53 L57,53 C57.5522847,53 58,53.4477153 58,54 L58,57 Z M58,20 C58.0000394,20.5476322 57.5595928,20.9934284 57.012,21 C56.699,21 56.382,21.009 56.078,21 L3,21 C2.44771525,21 2,20.5522847 2,20 L2,17 C2,16.4477153 2.44771525,16 3,16 L57,16 C57.5522847,16 58,16.4477153 58,17 L58,20 Z" id="Shape" fill="#428DFF"/><path d="M14,26 L12,26 C10.8954305,26 10,26.8954305 10,28 L10,29 L9,29 C7.8954305,29 7,29.8954305 7,31 L7,33 C7,34.1045695 7.8954305,35 9,35 L10,35 L10,36 C10,37.1045695 10.8954305,38 12,38 L14,38 C15.1045695,38 16,37.1045695 16,36 L16,35 L17,35 C18.1045695,35 19,34.1045695 19,33 L19,31 C19,29.8954305 18.1045695,29 17,29 L16,29 L16,28 C16,26.8954305 15.1045695,26 14,26 Z M17,31 L17,33 L15,33 C14.4477153,33 14,33.4477153 14,34 L14,36 L12,36 L12,34 C12,33.4477153 11.5522847,33 11,33 L9,33 L9,31 L11,31 C11.5522847,31 12,30.5522847 12,30 L12,28 L14,28 L14,30 C14,30.5522847 14.4477153,31 15,31 L17,31 Z" id="Shape" fill="#428DFF"/><path d="M51,35 C52.1045695,35 53,34.1045695 53,33 L53,31 C53,29.8954305 52.1045695,29 51,29 L43,29 C41.8954305,29 41,29.8954305 41,31 L41,33 C41,34.1045695 41.8954305,35 43,35 L51,35 Z M43,31 L51,31 L51,33 L43,33 L43,31 Z" id="Shape" fill="#428DFF"/><path d="M6,48 C6,48.5522847 6.44771525,49 7,49 L9,49 C9.55228475,49 10,48.5522847 10,48 C10,47.4477153 9.55228475,47 9,47 L7,47 C6.44771525,47 6,47.4477153 6,48 Z" id="Shape" fill="#428DFF"/><path d="M12,48 C12,48.5522847 12.4477153,49 13,49 L20,49 C20.5522847,49 21,48.5522847 21,48 C21,47.4477153 20.5522847,47 20,47 L13,47 C12.4477153,47 12,47.4477153 12,48 Z" id="Shape" fill="#428DFF"/></g></g></svg>
